<svg width="52" height="40" viewBox="0 0 50 40" xmlns="http://www.w3.org/2000/svg"><g fill="#212121" fill-rule="evenodd"><rect width="52" height="40"></rect><path d="M 9.966 35 C 10.193 34.42 10.306 34.005 10.306 33.753 C 10.306 33.475 10.174 33.261 9.909 33.11 C 9.645 32.959 9.197 32.833 8.567 32.732 L 6.829 32.43 L 9.059 26.608 L 19.152 26.608 L 21.08 32.316 C 19.215 32.845 18.005 33.261 17.451 33.564 L 17.262 35 L 27.77 35 C 27.871 34.849 27.952 34.635 28.015 34.357 C 28.078 34.08 28.11 33.828 28.11 33.601 C 28.11 33.324 28.022 33.116 27.845 32.978 C 27.669 32.839 27.367 32.732 26.938 32.656 L 25.199 32.354 L 16.354 8.351 C 15.749 8.351 15.05 8.54 14.256 8.918 C 13.462 9.296 12.99 9.661 12.839 10.014 L 3.464 32.429 C 2.356 32.807 1.474 33.198 0.818 33.601 L 0.629 35 L 9.966 35 Z M 18.282 24.114 L 10.004 24.114 L 14.389 12.623 L 18.282 24.114 Z M 35.859 35.416 C 37.043 35.416 38.184 35.164 39.28 34.66 C 40.376 34.156 41.239 33.476 41.869 32.619 C 42.071 33.501 42.405 34.175 42.871 34.641 C 43.337 35.107 43.898 35.34 44.553 35.34 C 45.183 35.34 45.844 35.214 46.537 34.962 C 47.23 34.71 47.791 34.421 48.22 34.093 C 48.648 33.765 48.862 33.463 48.862 33.186 L 48.862 32.354 C 48.257 32.405 47.69 32.43 47.161 32.43 C 46.355 32.43 45.769 32.241 45.403 31.863 C 45.038 31.485 44.855 30.893 44.855 30.086 L 44.855 21.657 C 44.855 19.338 44.402 17.694 43.495 16.724 C 42.587 15.754 41.05 15.269 38.883 15.269 C 37.547 15.269 36.243 15.521 34.971 16.025 C 33.698 16.529 32.69 17.133 31.947 17.839 C 31.203 18.545 30.832 19.238 30.832 19.918 C 30.832 20.598 31.039 21.09 31.455 21.392 C 31.871 21.695 32.545 21.846 33.478 21.846 L 34.12 21.846 C 34.145 20.409 34.479 19.376 35.122 18.746 C 35.764 18.116 36.779 17.801 38.165 17.801 C 39.349 17.801 40.187 18.129 40.678 18.784 C 41.17 19.439 41.416 20.535 41.416 22.073 L 41.416 24.152 C 39.4 24.303 37.692 24.523 36.294 24.813 C 34.895 25.103 33.742 25.475 32.835 25.928 C 31.928 26.382 31.26 26.949 30.832 27.629 C 30.403 28.31 30.189 29.141 30.189 30.124 C 30.189 31.686 30.712 32.959 31.758 33.942 C 32.803 34.925 34.171 35.416 35.859 35.416 Z M 37.144 32.694 C 36.136 32.694 35.311 32.417 34.668 31.863 C 34.026 31.308 33.704 30.603 33.704 29.746 C 33.704 28.738 34.171 28.013 35.103 27.572 C 36.035 27.131 37.736 26.823 40.206 26.646 L 41.416 26.571 L 41.416 30.389 C 41.088 31.019 40.502 31.56 39.658 32.014 C 38.814 32.468 37.976 32.694 37.144 32.694 Z" fill="white" fill-rule="nonzero"></path><polygon points="51.65 38.55 51.65 40.35 0.35 40.35 0.35 38.55" fill="#212121" fill-rule="nonzero"></polygon></g></svg>